<svg preserveAspectRatio="xMidYMid meet" data-bbox="22.669 52.004 330.401 254.703" height="500" viewBox="22.669 52.004 330.401 254.703" width="500" xmlns="http://www.w3.org/2000/svg" data-type="color" role="img" aria-label="Culture Icon"><defs><style>#comp-m83h9wui svg [data-color="1"] {fill: #DBDBDB;}
#comp-m83h9wui svg [data-color="2"] {fill: #2A3748;}
#comp-m83h9wui svg [data-color="3"] {fill: #26527E;}</style></defs>
    <g>
        <defs>
            <clipPath id="9ca480cb-a03a-4dc2-a64e-502c5c673c1c_comp-m83h9wui">
                <path d="M93.25 95H151v49H93.25Zm0 0"></path>
            </clipPath>
            <clipPath id="056277cb-91e1-4c39-8b5a-4822671afab1_comp-m83h9wui">
                <path d="M158 52.004h58V89h-58Zm0 0"></path>
            </clipPath>
            <clipPath id="95fb75f0-03b8-4173-975a-627187d55b11_comp-m83h9wui">
                <path d="M93.25 150H151v47H93.25Zm0 0"></path>
            </clipPath>
            <clipPath id="99734180-f281-4131-8e79-a48b944b416a_comp-m83h9wui">
                <path d="M224 150h57.5v47H224Zm0 0"></path>
            </clipPath>
            <clipPath id="715ff5e3-de3c-404b-b69b-ed1ac893bf71_comp-m83h9wui">
                <path d="M224 95h57.5v49H224Zm0 0"></path>
            </clipPath>
            <clipPath id="3f95a837-5ee5-4646-b27e-d8b5a29f6d7d_comp-m83h9wui">
                <path d="M158 203h58v37.254h-58Zm0 0"></path>
            </clipPath>
            <clipPath id="30cba911-b6fc-4463-8a25-f319cf8c0929_comp-m83h9wui">
                <path d="M245 130h108.082v155H245Zm0 0"></path>
            </clipPath>
            <clipPath id="de662790-64cd-45eb-b1fe-6fff4ff90d78_comp-m83h9wui">
                <path d="M106 108h163v198.727H106Zm0 0"></path>
            </clipPath>
        </defs>
        <path d="M151.82 88.934c4.485-15.52 10.77-27.797 18.203-35.329a93.9 93.9 0 0 0-31.953 12.352 93.7 93.7 0 0 0-13.757 10.32 94 94 0 0 0-11.649 12.657Zm0 0" fill="#f8b81a" data-color="1"></path>
        <g clip-path="url(#9ca480cb-a03a-4dc2-a64e-502c5c673c1c_comp-m83h9wui)">
            <path d="M93.25 143.934h51.203a214 214 0 0 1 5.598-48.356h-42.067a93.5 93.5 0 0 0-10.699 23.164 93 93 0 0 0-2.879 12.457 93 93 0 0 0-1.156 12.735m0 0" fill="#f8b81a" data-color="1"></path>
        </g>
        <g clip-path="url(#056277cb-91e1-4c39-8b5a-4822671afab1_comp-m83h9wui)">
            <path d="M187.375 52.004c-9.004 0-18.105 9.82-24.914 26.484-1.344 3.274-2.555 6.778-3.668 10.446h57.133c-1.113-3.668-2.328-7.172-3.668-10.446-6.844-16.664-15.91-26.484-24.883-26.484m0 0" fill="#f8b81a" data-color="1"></path>
        </g>
        <path d="M204.563 53.605c7.433 7.532 13.718 19.81 18.203 35.329h39.289a94.2 94.2 0 0 0-25.477-22.989 94 94 0 0 0-15.441-7.636 94 94 0 0 0-16.574-4.704m0 0" fill="#f8b81a" data-color="1"></path>
        <path d="M217.66 95.578h-60.73a207.7 207.7 0 0 0-5.797 48.356h72.453a207.7 207.7 0 0 0-5.926-48.356m0 0" fill="#f8b81a" data-color="1"></path>
        <path d="M217.66 196.676a205.4 205.4 0 0 0 5.89-46.098h-72.386a205 205 0 0 0 5.766 46.098Zm0 0" fill="#f8b81a" data-color="1"></path>
        <g clip-path="url(#95fb75f0-03b8-4173-975a-627187d55b11_comp-m83h9wui)">
            <path d="M150.05 196.676a212 212 0 0 1-5.562-46.098H93.25a93 93 0 0 0 4.332 24.02 93 93 0 0 0 10.402 22.078Zm0 0" fill="#f8b81a" data-color="1"></path>
        </g>
        <g clip-path="url(#99734180-f281-4131-8e79-a48b944b416a_comp-m83h9wui)">
            <path d="M281.371 150.578h-51.14a214 214 0 0 1-5.567 46.098h42.106a92.8 92.8 0 0 0 10.343-22.082 92.8 92.8 0 0 0 4.258-24.016m0 0" fill="#f8b81a" data-color="1"></path>
        </g>
        <g clip-path="url(#715ff5e3-de3c-404b-b69b-ed1ac893bf71_comp-m83h9wui)">
            <path d="M266.77 95.578h-42.106a215.5 215.5 0 0 1 5.598 48.356h51.207a94 94 0 0 0-4.031-25.188 94 94 0 0 0-10.668-23.168m0 0" fill="#f8b81a" data-color="1"></path>
        </g>
        <g clip-path="url(#3f95a837-5ee5-4646-b27e-d8b5a29f6d7d_comp-m83h9wui)">
            <path d="M187.375 240.285c8.973 0 18.04-9.656 24.883-26.484 1.34-3.278 2.554-6.778 3.664-10.446H158.73c1.11 3.668 2.325 7.168 3.665 10.446 6.875 16.828 15.976 26.484 24.98 26.484m0 0" fill="#f8b81a" data-color="1"></path>
        </g>
        <path d="M170.023 238.617c-7.433-7.531-13.718-19.808-18.203-35.328h-39.285a94 94 0 0 0 11.68 12.664 94 94 0 0 0 13.793 10.324 94.2 94.2 0 0 0 32.016 12.34m0 0" fill="#f8b81a" data-color="1"></path>
        <path d="M222.898 203.355c-4.488 15.618-10.773 27.797-18.335 35.262a94.6 94.6 0 0 0 16.566-4.695 94.3 94.3 0 0 0 29.23-17.93 94 94 0 0 0 11.696-12.637Zm0 0" fill="#f8b81a" data-color="1"></path>
        <g clip-path="url(#30cba911-b6fc-4463-8a25-f319cf8c0929_comp-m83h9wui)">
            <path d="m296.457 259.98-1.867-33.718h-8.317l-1.367 33.883-15.594-52.082 2.141-4.864q.346.433.746.871c.102.118.215.23.324.348.22.234.442.465.676.7l.301.292q.386.38.8.754.136.129.278.258.55.499 1.129.992c.035.027.07.059.106.086a54 54 0 0 0 1.375 1.129q.556.448 1.125.883l.093.074c.887.676 1.778 1.332 2.633 1.945a126 126 0 0 0 5.203 3.508l-4.398 5.02 4.332 4.285h9.023l4.336-4.95-4.988-4.933c.86-.574 1.93-1.309 3.105-2.149a132 132 0 0 0 2.465-1.812q.476-.363.957-.738l.008-.008.195-.149c.223-.175.45-.359.676-.539a63 63 0 0 0 3.07-2.617l.141-.129q.585-.542 1.129-1.078l.035-.039a29 29 0 0 0 1.547-1.66c.215-.254.426-.504.613-.746l.004-.067 2.07 4.614Zm54.36-26.07a33.8 33.8 0 0 0-3.762-6.137c-3.282-4.27-7.075-7.199-11.078-9.546-4.489-2.633-9.141-4.454-13.79-6.282-3.167-1.246-6.359-2.379-9.433-4.11l.012-.015-3.442-7.66-.676-.144.239-4.239.125-.195c1.742-2.86 2.64-5.687 3.086-7.555q.188.019.375.02c1.097-.004 3.113-.484 4.3-3.664.403-1.07.586-2.113.657-2.621 2.558-5.739 3.132-9.176 1.863-11.137-.633-.973-1.672-1.512-2.934-1.508-.02 0-.046.004-.07.004l.024-.21c.457-4.634.914-9.321.316-13.938-.598-4.621-2.356-9.239-5.73-12.446-.93-.882-1.97-1.652-2.915-2.52-1.156-1.066-2.164-2.284-3.293-3.382-4.39-4.27-10.632-6.566-16.738-6.156-5.027.34-9.797 2.406-14.121 4.996-11.152 6.668-10.867 20.851-10.5 32.262.008.289.023.582.05.87.071.43.118.669.118.669-1.234.015-2.25.558-2.867 1.523-1.258 1.965-.664 5.402 1.926 11.125.074.508.261 1.55.671 2.617 1.207 3.176 3.223 3.64 4.32 3.637q.188.001.376-.016c.43 1.762 1.273 4.387 2.851 7.075l.391 5.437-.637.14-3.14 7.126c-3.325 2.09-6.844 3.285-10.313 4.718-3.832 1.582-7.66 3.168-11.383 5.239.797.43 1.59.87 2.38 1.336 6.245 3.66 10.984 7.746 14.917 12.863a45.7 45.7 0 0 1 5.094 8.316c1.93 4.078 3.125 7.575 3.125 12.387v17.89c0 4.262-.004 8.618-1.777 12.634q2.906.397 5.82.695c2.383.242 4.766.355 7.144.531h1.895c.379.059.762.117 1.14.18l9.551-.07 1.137-.196q.947-.017 1.895-.027c3.644-.367 7.296-.602 10.93-1.13 3.894-.562 7.777-1.335 11.656-2.136 5.16-1.066 10.257-2.637 15.285-4.7 4.242-1.745 8.918-3.48 12.535-6.37 4.547-3.633 4.648-8.031 4.648-13.406v-13.926c0-3.395-.824-5.817-2.254-8.848" fill="#2b394c" data-color="2"></path>
        </g>
        <path d="m92.094 259.98-1.867-33.718H81.91l-1.37 33.883-15.59-52.082 2.136-4.864q.349.433.746.871c.106.118.219.23.328.348q.32.35.676.7.145.146.297.292.386.38.8.754c.094.086.184.172.282.258q.546.499 1.129.992l.101.086q.552.462 1.114.918.127.105.261.21.561.449 1.13.884.041.036.09.074c.886.676 1.776 1.332 2.632 1.945a123 123 0 0 0 5.207 3.508l-4.402 5.02 4.335 4.285h9.02l4.34-4.95-4.992-4.933a120 120 0 0 0 5.57-3.96q.475-.365.957-.74l.012-.007c.062-.05.129-.098.191-.149.227-.175.45-.359.676-.539a60 60 0 0 0 3.07-2.617c.051-.043.094-.086.14-.129q.585-.542 1.13-1.078c.011-.015.027-.027.039-.039.402-.402.785-.8 1.14-1.2q.207-.232.407-.46c.21-.254.422-.504.61-.746l.003-.067 2.074 4.614Zm12.687 14.79c0-2.149-.062-4.305-.125-6.582-.265-9.497-.543-19.313 3.746-28.008a45 45 0 0 1 6.336-9.551c3.5-4.043 7.668-7.504 12.739-10.57a74 74 0 0 1 3.695-2.082c-4.356-2.493-8.852-4.262-13.352-6.032-3.168-1.246-6.355-2.379-9.433-4.11l.011-.015-3.441-7.66-.676-.144.242-4.239q.061-.1.122-.195c1.746-2.86 2.64-5.687 3.085-7.555q.193.019.38.02c1.093-.004 3.109-.484 4.3-3.664.399-1.07.582-2.113.656-2.621 2.555-5.739 3.13-9.176 1.864-11.137-.633-.973-1.676-1.512-2.934-1.508-.023 0-.047.004-.074.004l.023-.21c.457-4.634.914-9.321.32-13.938-.6-4.621-2.355-9.239-5.73-12.446-.933-.882-1.972-1.652-2.918-2.52-1.152-1.066-2.164-2.284-3.289-3.382-4.39-4.27-10.633-6.566-16.742-6.156-5.027.34-9.797 2.406-14.121 4.996-11.149 6.668-10.867 20.851-10.5 32.262.012.289.023.582.055.87.066.43.113.669.113.669-1.23.015-2.246.558-2.867 1.523-1.254 1.965-.66 5.402 1.925 11.125.075.508.266 1.55.672 2.617 1.207 3.176 3.227 3.64 4.32 3.637q.188.001.376-.016c.433 1.762 1.273 4.387 2.855 7.075l.387 5.437-.637.14-3.137 7.126c-3.328 2.09-6.847 3.285-10.316 4.718-4.41 1.82-8.82 3.645-13.07 6.215-3.371 2.04-6.582 4.512-9.477 7.86a33.3 33.3 0 0 0-4.672 7.039c-3.894 7.902-2.625 17.422-2.625 26.101 0 3.457.117 7.309 2.942 9.867 3.507 3.176 8.62 5.07 12.921 6.852 5.786 2.398 11.668 4.008 17.606 5.238 4.836 1.004 9.691 1.692 14.555 2.188 2.379.242 4.761.355 7.144.531h1.895q.568.087 1.136.18l9.551-.07q.569-.099 1.14-.196.947-.017 1.891-.027c3.645-.367 7.297-.602 10.93-1.13.36-.05.715-.112 1.074-.171-.867-2.95-.87-5.996-.87-8.355" fill="#2b394c" data-color="2"></path>
        <g clip-path="url(#de662790-64cd-45eb-b1fe-6fff4ff90d78_comp-m83h9wui)">
            <path d="m196.102 274.918-2.399-43.324h-10.687l-1.762 43.539-20.035-66.93 2.75-6.246c.297.367.617.742.957 1.117.133.149.281.297.418.446.281.296.566.597.87.902q.19.182.384.375c.336.32.675.644 1.027.969l.36.328c.472.43.952.851 1.452 1.273.043.04.09.074.133.113q.706.594 1.426 1.18l.34.27q.721.573 1.45 1.136l.116.094c1.141.871 2.282 1.711 3.383 2.496a160 160 0 0 0 6.688 4.516l-5.653 6.445 5.57 5.504h11.59l5.579-6.355-6.414-6.34c1.105-.738 2.48-1.684 3.992-2.762a142 142 0 0 0 3.164-2.328q.611-.469 1.234-.95l.008-.007c.082-.066.168-.129.25-.195q.434-.34.867-.692a80 80 0 0 0 3.95-3.363q.086-.083.18-.164.75-.696 1.448-1.39l.047-.048a38 38 0 0 0 1.465-1.535q.268-.303.523-.601c.274-.32.547-.641.786-.957l.007-.082 2.66 5.925Zm69.847-33.5a43.3 43.3 0 0 0-4.832-7.887c-4.215-5.488-9.086-9.25-14.234-12.27-5.766-3.382-11.746-5.718-17.719-8.07-4.07-1.601-8.172-3.054-12.125-5.28l.016-.02-4.422-9.844-.871-.184.312-5.445c.051-.086.106-.172.156-.254 2.243-3.672 3.395-7.305 3.97-9.707q.239.023.484.023c1.406-.003 3.996-.62 5.523-4.707a17 17 0 0 0 .848-3.367c3.285-7.37 4.02-11.793 2.39-14.308-.812-1.258-2.148-1.946-3.765-1.942q-.048-.001-.094.004.017-.135.027-.27c.59-5.956 1.176-11.976.41-17.91-.77-5.937-3.027-11.87-7.363-15.992-1.2-1.136-2.531-2.12-3.746-3.238-1.488-1.371-2.781-2.934-4.23-4.344-5.645-5.492-13.664-8.441-21.516-7.91-6.457.434-12.586 3.086-18.145 6.414-14.324 8.574-13.96 26.797-13.488 41.457q.01.564.067 1.121c.085.555.148.856.148.856-1.586.027-2.89.719-3.684 1.96-1.617 2.528-.851 6.942 2.473 14.298.094.652.34 1.992.863 3.363 1.551 4.078 4.145 4.68 5.551 4.676.16 0 .324-.008.484-.024.555 2.266 1.633 5.637 3.668 9.09l.497 6.988-.82.18-4.032 9.156c-4.273 2.688-8.797 4.223-13.25 6.063-5.672 2.344-11.34 4.687-16.8 7.988-4.333 2.621-8.458 5.797-12.177 10.098a43 43 0 0 0-6.003 9.047c-5.008 10.156-3.375 22.39-3.375 33.543 0 4.44.152 9.39 3.78 12.68 4.509 4.081 11.079 6.51 16.602 8.804 7.434 3.082 15 5.152 22.625 6.73 6.215 1.286 12.453 2.172 18.703 2.813 3.055.312 6.122.457 9.18.676l2.434.004q.732.112 1.465.23l12.273-.09c.488-.082.973-.168 1.461-.25q1.22-.023 2.434-.035c4.683-.469 9.375-.773 14.043-1.45 5.007-.726 9.996-1.718 14.98-2.75q9.952-2.055 19.645-6.034c5.449-2.243 11.46-4.47 16.109-8.188 5.84-4.668 5.969-10.32 5.969-17.23v-17.89c0-4.368-1.055-7.477-2.899-11.372" fill="#3679c4" data-color="3"></path>
        </g>
    </g>
</svg>
