<svg preserveAspectRatio="xMidYMid meet" data-bbox="50.269 57.297 253.417 236.758" height="500" viewBox="50.269 57.297 253.417 236.758" width="500" xmlns="http://www.w3.org/2000/svg" data-type="color" role="img" aria-label="Mission Icon"><defs><style>#comp-m83h96im svg [data-color="1"] {fill: #2A3748;}
#comp-m83h96im svg [data-color="2"] {fill: #DBDBDB;}
#comp-m83h96im svg [data-color="3"] {fill: #2A3748;}
#comp-m83h96im svg [data-color="4"] {fill: #87C5EF;}
#comp-m83h96im svg [data-color="5"] {fill: #26527E;}</style></defs>
    <g>
        <path d="M253.57 72.871a78.2 78.2 0 0 1 15.96 9.965q1.85 1.487 3.615 3.09a84 84 0 0 1 3.449 3.316 85 85 0 0 1 6.363 7.281 89 89 0 0 1 5.598 8.079 98 98 0 0 1 2.492 4.316 97 97 0 0 1 4.351 9.137q.98 2.36 1.848 4.797a106 106 0 0 1 3.012 9.992 116 116 0 0 1 2.082 10.441 120 120 0 0 1 1.129 10.793q.164 2.735.203 5.5.04 2.76-.035 5.543-.077 2.783-.278 5.582-.197 2.794-.52 5.602a132 132 0 0 1-.757 5.61q-.434 2.804-.992 5.605a140 140 0 0 1-1.23 5.585c-.45 1.86-.934 3.711-1.462 5.555a140 140 0 0 1-1.691 5.508 137 137 0 0 1-1.914 5.45 145 145 0 0 1-9.797 20.953 147 147 0 0 1-2.957 4.96 143 143 0 0 1-6.473 9.512 141 141 0 0 1-7.164 8.883 134 134 0 0 1-3.824 4.176 132 132 0 0 1-3.965 3.992 130 130 0 0 1-8.34 7.375 123 123 0 0 1-8.809 6.508 113 113 0 0 1-4.554 2.91 113 113 0 0 1-4.637 2.675 117 117 0 0 1-4.71 2.426 111 111 0 0 1-4.778 2.176q-2.402 1.026-4.824 1.918a99 99 0 0 1-14.668 4.18q-2.46.492-4.914.855a92 92 0 0 1-4.906.578q-2.45.222-4.887.309a88 88 0 0 1-4.856.031 82 82 0 0 1-4.812-.246 80 80 0 0 1-9.445-1.309 78 78 0 0 1-9.14-2.398 78 78 0 0 1-8.742-3.457 78.2 78.2 0 0 1-15.96-9.965 79 79 0 0 1-3.615-3.09 79 79 0 0 1-3.45-3.316 85 85 0 0 1-6.363-7.281 91 91 0 0 1-5.598-8.078 95.4 95.4 0 0 1-6.843-13.454 101 101 0 0 1-1.848-4.796 106 106 0 0 1-3.012-9.993 116 116 0 0 1-2.082-10.441 120 120 0 0 1-1.129-10.793q-.162-2.736-.203-5.496-.04-2.765.035-5.547c.055-1.855.145-3.715.278-5.578q.198-2.8.52-5.606.316-2.801.757-5.609.435-2.806.992-5.605a141 141 0 0 1 2.692-11.141q.79-2.766 1.691-5.508a137 137 0 0 1 1.914-5.45 145 145 0 0 1 9.797-20.953 147 147 0 0 1 2.957-4.96 148 148 0 0 1 3.145-4.828 149 149 0 0 1 3.328-4.684 141 141 0 0 1 7.164-8.883 134 134 0 0 1 3.824-4.175 137 137 0 0 1 3.965-3.993 134 134 0 0 1 4.105-3.789q2.088-1.846 4.235-3.582a121 121 0 0 1 4.351-3.367 118 118 0 0 1 9.012-6.055 108 108 0 0 1 4.637-2.671q2.338-1.276 4.71-2.43a113 113 0 0 1 4.778-2.176q2.403-1.026 4.824-1.918a99 99 0 0 1 14.668-4.18 94 94 0 0 1 4.914-.851 90 90 0 0 1 9.793-.89 88 88 0 0 1 4.856-.032q2.416.053 4.812.246a80 80 0 0 1 9.446 1.309c1.554.308 3.09.664 4.617 1.066a78 78 0 0 1 8.949 2.93 78 78 0 0 1 4.316 1.86m0 0" fill="#80b2e8" data-color="1"></path>
        <path d="M236.137 64.727a78 78 0 0 1 12.188 7.105 78 78 0 0 1 3.773 2.856 82 82 0 0 1 3.617 3.09 83.6 83.6 0 0 1 9.808 10.597q1.499 1.923 2.899 3.945a92 92 0 0 1 7.477 12.941 103 103 0 0 1 2.07 4.645 104 104 0 0 1 3.465 9.73 111.6 111.6 0 0 1 3.473 15.5q.402 2.662.683 5.364.287 2.697.445 5.434c.11 1.824.176 3.656.207 5.496a125 125 0 0 1-.039 5.543q-.076 2.784-.277 5.582-.2 2.794-.516 5.601a137 137 0 0 1-2.984 16.801 132 132 0 0 1-1.461 5.555 138 138 0 0 1-1.688 5.511 148 148 0 0 1-1.914 5.45 151 151 0 0 1-2.133 5.379 148 148 0 0 1-4.906 10.488 148 148 0 0 1-2.762 5.082 141 141 0 0 1-2.957 4.965 142 142 0 0 1-9.972 14.035 139 139 0 0 1-7.484 8.535 134 134 0 0 1-8.074 7.781q-2.086 1.841-4.235 3.582a122 122 0 0 1-8.809 6.512 118 118 0 0 1-4.55 2.91c-1.536.93-3.079 1.82-4.641 2.672q-2.339 1.277-4.711 2.426-2.375 1.155-4.774 2.176-2.401 1.025-4.828 1.921a99 99 0 0 1-4.867 1.657 93 93 0 0 1-4.89 1.394 93 93 0 0 1-4.91 1.125 92 92 0 0 1-9.82 1.438q-2.45.223-4.888.304a85 85 0 0 1-9.664-.21 83 83 0 0 1-4.758-.52 78 78 0 0 1-4.69-.793 80 80 0 0 1-9.142-2.394 80 80 0 0 1-4.425-1.598 78 78 0 0 1-8.512-3.98 78.7 78.7 0 0 1-11.762-7.844 82 82 0 0 1-3.617-3.09 85 85 0 0 1-6.723-6.852 87 87 0 0 1-3.086-3.746 86 86 0 0 1-2.898-3.945 92 92 0 0 1-7.477-12.941 98 98 0 0 1-3.914-9.442 107 107 0 0 1-4.172-15.164q-.522-2.613-.921-5.274a120 120 0 0 1-1.133-10.792 128 128 0 0 1-.168-11.04 134 134 0 0 1 1.555-16.792q.44-2.81.996-5.606.552-2.801 1.226-5.586.676-2.789 1.461-5.555a144.5 144.5 0 0 1 8.086-21.632q1.23-2.62 2.559-5.196a148 148 0 0 1 5.715-10.047 147 147 0 0 1 6.473-9.512 142 142 0 0 1 3.5-4.523 136 136 0 0 1 3.667-4.355 130 130 0 0 1 3.82-4.18 127 127 0 0 1 3.97-3.988 129 129 0 0 1 4.105-3.793q2.084-1.841 4.234-3.582a122 122 0 0 1 8.805-6.512 117 117 0 0 1 9.191-5.582q2.343-1.278 4.715-2.426a102 102 0 0 1 4.773-2.175q2.403-1.026 4.829-1.922a99 99 0 0 1 4.863-1.657 94 94 0 0 1 4.894-1.394 91 91 0 0 1 4.91-1.125 92 92 0 0 1 9.816-1.437 86 86 0 0 1 4.888-.305 86 86 0 0 1 9.668.21q2.39.193 4.757.52c1.575.219 3.141.48 4.692.793q2.327.464 4.613 1.063a78 78 0 0 1 13.266 4.793m0 0" fill="#d2edff" data-color="2"></path>
        <path d="M224.813 88.938a60 60 0 0 1 3.246 1.636 62 62 0 0 1 6.18 3.86 61 61 0 0 1 2.917 2.21 58 58 0 0 1 2.797 2.391c.914.824 1.8 1.68 2.668 2.563q1.3 1.329 2.531 2.734 1.23 1.41 2.391 2.898a67 67 0 0 1 4.328 6.25 70 70 0 0 1 1.93 3.34 76 76 0 0 1 4.793 10.773q.673 1.883 1.254 3.817.586 1.935 1.078 3.91a90 90 0 0 1 .894 4q.405 2.022.715 4.078t.531 4.149q.216 2.087.344 4.203a98 98 0 0 1-.086 12.855 96 96 0 0 1-.402 4.333q-.248 2.17-.582 4.34-.341 2.167-.77 4.335a112 112 0 0 1-2.082 8.617 111 111 0 0 1-2.789 8.477 111 111 0 0 1-5.445 12.27 106 106 0 0 1-2.133 3.933c-.738 1.297-1.5 2.574-2.285 3.84a120 120 0 0 1-2.434 3.734 114 114 0 0 1-2.574 3.621 103 103 0 0 1-2.707 3.5 112 112 0 0 1-2.836 3.372 110 110 0 0 1-2.953 3.23 101 101 0 0 1-9.52 8.79q-1.662 1.343-3.367 2.605a97 97 0 0 1-3.445 2.43 89 89 0 0 1-3.523 2.25 90 90 0 0 1-3.586 2.07 87 87 0 0 1-7.34 3.558 82 82 0 0 1-7.496 2.77q-1.887.587-3.785 1.074a70 70 0 0 1-3.797.871 68 68 0 0 1-3.801.66 70 70 0 0 1-3.793.453 69 69 0 0 1-3.781.235 67 67 0 0 1-7.477-.164 61 61 0 0 1-3.68-.403 62 62 0 0 1-3.629-.61q-1.8-.361-3.566-.823a59 59 0 0 1-3.5-1.032 60 60 0 0 1-13.152-6.148 58 58 0 0 1-3.035-2.023 62 62 0 0 1-5.719-4.602q-1.365-1.237-2.668-2.563a70 70 0 0 1-2.531-2.734 69 69 0 0 1-4.63-5.95 68 68 0 0 1-2.085-3.198 67 67 0 0 1-1.93-3.34 74 74 0 0 1-1.77-3.469 80 80 0 0 1-1.597-3.594 83 83 0 0 1-1.43-3.71 86 86 0 0 1-1.254-3.817 85 85 0 0 1-1.969-7.91 87 87 0 0 1-.714-4.078 95 95 0 0 1-.532-4.149 96 96 0 0 1-.5-8.453 92 92 0 0 1 .028-4.289q.058-2.153.215-4.316a102 102 0 0 1 .984-8.672q.34-2.168.77-4.336a112 112 0 0 1 2.082-8.617q.608-2.14 1.304-4.262.7-2.116 1.48-4.215a118 118 0 0 1 1.653-4.16 116 116 0 0 1 1.817-4.094 112 112 0 0 1 4.113-7.95 118 118 0 0 1 2.285-3.839q1.182-1.894 2.434-3.734a108 108 0 0 1 2.574-3.621 103 103 0 0 1 2.707-3.5q1.383-1.718 2.836-3.371 1.447-1.648 2.953-3.23a101 101 0 0 1 9.52-8.79 104 104 0 0 1 3.363-2.605 97 97 0 0 1 3.449-2.43 89 89 0 0 1 3.523-2.25 87 87 0 0 1 3.586-2.07 89 89 0 0 1 3.645-1.875 84 84 0 0 1 3.695-1.684 81 81 0 0 1 7.496-2.77q1.887-.585 3.785-1.078a72 72 0 0 1 3.797-.867 67 67 0 0 1 3.801-.66 70 70 0 0 1 3.793-.453 68 68 0 0 1 7.535-.258q1.87.04 3.723.188 1.85.145 3.68.402 1.825.252 3.628.61 1.798.361 3.567.823 1.77.464 3.5 1.032a61 61 0 0 1 6.762 2.676m0 0" fill="#312f84" data-color="3"></path>
        <path d="M212.266 115.766a41 41 0 0 1 4.316 2.343q2.085 1.307 4.02 2.86a43.3 43.3 0 0 1 7.015 7.152 46 46 0 0 1 2.926 4.223 51 51 0 0 1 2.496 4.597 53 53 0 0 1 2.043 4.934 56 56 0 0 1 1.574 5.223 58 58 0 0 1 1.086 5.453q.422 2.782.594 5.64.168 2.86.086 5.77a70 70 0 0 1-.414 5.84 70 70 0 0 1-.918 5.86 72 72 0 0 1-1.406 5.82 73 73 0 0 1-1.883 5.726 75.8 75.8 0 0 1-8.305 16.063 74 74 0 0 1-3.566 4.808 71 71 0 0 1-3.914 4.461 67.5 67.5 0 0 1-8.7 7.695 64 64 0 0 1-4.71 3.164 60 60 0 0 1-4.883 2.665 56 56 0 0 1-5.016 2.136 53 53 0 0 1-5.102 1.598 50 50 0 0 1-5.128 1.031c-1.715.25-3.418.406-5.118.465q-2.548.089-5.05-.11a42.2 42.2 0 0 1-9.711-1.937 40.8 40.8 0 0 1-12.906-7.012 43 43 0 0 1-3.688-3.347 44 44 0 0 1-3.324-3.805 46 46 0 0 1-2.926-4.223 49 49 0 0 1-2.496-4.597 52 52 0 0 1-2.043-4.934 56 56 0 0 1-1.574-5.223 59 59 0 0 1-1.09-5.453 64 64 0 0 1-.59-5.64 66 66 0 0 1-.086-5.77c.055-1.937.191-3.887.414-5.84q.334-2.935.914-5.859.586-2.931 1.406-5.82.827-2.896 1.883-5.727a76.4 76.4 0 0 1 5.121-10.945 75 75 0 0 1 3.188-5.117 74 74 0 0 1 3.566-4.809 73 73 0 0 1 3.91-4.46 70 70 0 0 1 4.22-4.063 64.3 64.3 0 0 1 9.191-6.797 61 61 0 0 1 4.886-2.664 55 55 0 0 1 5.016-2.137 53 53 0 0 1 5.097-1.598 50 50 0 0 1 5.133-1.031 47 47 0 0 1 5.118-.465 44 44 0 0 1 5.05.11 42.2 42.2 0 0 1 9.711 1.937 41 41 0 0 1 4.567 1.809m0 0" fill="#d2edff" data-color="2"></path>
        <path d="M197.879 146.52q1.003.463 1.941 1.05.938.586 1.805 1.285a19.4 19.4 0 0 1 3.152 3.211 22 22 0 0 1 2.434 3.965q.512 1.072.918 2.215.409 1.142.707 2.348.3 1.2.488 2.449.189 1.247.266 2.535a30 30 0 0 1-.149 5.215 32.6 32.6 0 0 1-1.043 5.246 33.5 33.5 0 0 1-1.898 5.078q-.573 1.231-1.246 2.41a34 34 0 0 1-3.035 4.461 31 31 0 0 1-1.758 2.004 31 31 0 0 1-3.906 3.457 29 29 0 0 1-2.118 1.418 25.6 25.6 0 0 1-4.445 2.16c-.762.282-1.523.52-2.293.715q-1.149.3-2.304.465-1.155.17-2.297.211a20 20 0 0 1-2.27-.05 19 19 0 0 1-4.363-.872c-.7-.226-1.383-.5-2.05-.812a18 18 0 0 1-1.938-1.051q-.937-.586-1.809-1.285a19.5 19.5 0 0 1-3.148-3.21 22 22 0 0 1-2.434-3.965 22 22 0 0 1-.918-2.216 24 24 0 0 1-.707-2.348q-.303-1.2-.488-2.449a27 27 0 0 1-.266-2.535 29 29 0 0 1-.039-2.59 31 31 0 0 1 .184-2.625q.15-1.317.414-2.633a32.6 32.6 0 0 1 1.476-5.183 34 34 0 0 1 1.051-2.508c.387-.82.8-1.625 1.25-2.41.445-.79.926-1.555 1.43-2.301a33.6 33.6 0 0 1 3.359-4.164 33 33 0 0 1 1.895-1.824 32 32 0 0 1 2.015-1.633 28 28 0 0 1 2.113-1.418 27 27 0 0 1 2.196-1.2q1.118-.539 2.254-.96c.757-.281 1.523-.52 2.289-.715q1.155-.3 2.308-.465a20 20 0 0 1 4.566-.16 19 19 0 0 1 4.36.871q1.055.342 2.05.813m0 0" fill="#312f84" data-color="3"></path>
        <path d="M120.168 127.207s-17.375-56.945-35.02-65.652c-17.64-8.703-11.914 43.703-11.914 43.703Zm0 0" fill="#8282db" data-color="4"></path>
        <path d="M110.867 144.758s-51.84 15.297-58.945 1.785c-7.11-13.516 11.023-19.336 11.023-19.336Zm0 0" fill="#8282db" data-color="4"></path>
        <path d="M84.86 112.043q-.252 0-.485-.094a1.33 1.33 0 0 1-.852-1.133l-3.152-35.398q-.01-.259.078-.5.087-.24.262-.434.17-.195.398-.308a1.35 1.35 0 0 1 .993-.09 1.37 1.37 0 0 1 .78.617q.132.224.169.477l3.152 35.398c.016.176-.004.352-.055.52q-.082.257-.253.46-.17.206-.41.329a1.3 1.3 0 0 1-.5.148Zm0 0" fill="#5656bf" data-color="5"></path>
        <path d="M95.172 116.86a1.4 1.4 0 0 1-.496-.09 1.3 1.3 0 0 1-.422-.27 1.3 1.3 0 0 1-.297-.402 1.3 1.3 0 0 1-.129-.485l-1.547-21.625a1.3 1.3 0 0 1 .043-.539c.055-.18.137-.336.254-.48a1.37 1.37 0 0 1 .945-.489q.276-.017.54.07.258.095.464.278.205.187.32.438.114.254.122.53l1.52 21.626a1.4 1.4 0 0 1-.067.52q-.088.251-.262.456a1.3 1.3 0 0 1-.414.32q-.24.124-.504.141Zm0 0" fill="#5656bf" data-color="5"></path>
        <path d="M63.379 143.531a1.3 1.3 0 0 1-.89-.324 1.32 1.32 0 0 1-.454-.836 1.32 1.32 0 0 1 .215-.926q.282-.421.77-.55l21.48-5.98a1.3 1.3 0 0 1 .523-.044c.18.02.344.074.5.16q.237.13.403.34a1.3 1.3 0 0 1 .242.465q.071.26.043.523a1.34 1.34 0 0 1-.5.903q-.206.165-.465.242l-21.508 5.984a1.6 1.6 0 0 1-.36.043m0 0" fill="#5656bf" data-color="5"></path>
        <path d="m189.488 168.988-.133.082a4.3 4.3 0 0 1-1.707.543 4.2 4.2 0 0 1-1.78-.195L68.57 130.852a13.4 13.4 0 0 1-3.648-1.875 13 13 0 0 1-1.559-1.344 13 13 0 0 1-1.332-1.567 13 13 0 0 1-1.07-1.754 13 13 0 0 1-.785-1.902q-.317-.979-.477-2c-.11-.68-.16-1.363-.16-2.05a12.9 12.9 0 0 1 .672-4.145q.227-.663.52-1.3c.19-.427.41-.84.648-1.24q.361-.602.781-1.163c.281-.375.582-.73.899-1.075q.48-.51 1.007-.972a13.7 13.7 0 0 1 2.297-1.594 13.4 13.4 0 0 1 2.582-1.074q.677-.2 1.364-.324a13 13 0 0 1 2.789-.207q.701.023 1.398.117a13.7 13.7 0 0 1 2.711.68c.441.16.867.347 1.29.55l110.776 54.774a4.13 4.13 0 0 1 1.79 1.668 4.4 4.4 0 0 1 .562 1.601 4.33 4.33 0 0 1-.855 3.219 4.3 4.3 0 0 1-1.281 1.113m0 0" fill="#5656bf" data-color="5"></path>
    </g>
</svg>
